<mxfile host="app.diagrams.net" modified="2022-02-04T12:40:04.940Z" agent="5.0 (Windows NT 10.0; Win64; x64) AppleWebKit/537.36 (KHTML, like Gecko) Chrome/98.0.4758.87 Safari/537.36" etag="UJ5kgS3-P8YLFDKPhImO" version="16.5.3" type="github">
  <diagram id="ZNLuPWGOUYZngsrCqUtR" name="Page-1">
    <mxGraphModel dx="1273" dy="1258" grid="1" gridSize="10" guides="1" tooltips="1" connect="1" arrows="1" fold="1" page="1" pageScale="1" pageWidth="850" pageHeight="1100" math="0" shadow="0">
      <root>
        <mxCell id="0" />
        <mxCell id="1" parent="0" />
        <mxCell id="ToLmbOnrknAfBExeI6Ki-1" value="" style="ellipse;whiteSpace=wrap;html=1;aspect=fixed;" vertex="1" parent="1">
          <mxGeometry x="10" y="170" width="50" height="50" as="geometry" />
        </mxCell>
        <mxCell id="ToLmbOnrknAfBExeI6Ki-2" value="" style="triangle;whiteSpace=wrap;html=1;fillColor=#000000;" vertex="1" parent="1">
          <mxGeometry x="120" y="170" width="30" height="50" as="geometry" />
        </mxCell>
        <mxCell id="ToLmbOnrknAfBExeI6Ki-3" value="" style="endArrow=none;html=1;rounded=0;exitX=1;exitY=0.5;exitDx=0;exitDy=0;entryX=0;entryY=0.5;entryDx=0;entryDy=0;" edge="1" parent="1" source="ToLmbOnrknAfBExeI6Ki-1" target="ToLmbOnrknAfBExeI6Ki-2">
          <mxGeometry width="50" height="50" relative="1" as="geometry">
            <mxPoint x="60" y="230" as="sourcePoint" />
            <mxPoint x="110" y="180" as="targetPoint" />
          </mxGeometry>
        </mxCell>
        <mxCell id="ToLmbOnrknAfBExeI6Ki-4" value="" style="endArrow=none;html=1;rounded=0;exitX=1;exitY=0.5;exitDx=0;exitDy=0;entryX=0;entryY=0.5;entryDx=0;entryDy=0;" edge="1" parent="1">
          <mxGeometry width="50" height="50" relative="1" as="geometry">
            <mxPoint x="150" y="194.57999999999993" as="sourcePoint" />
            <mxPoint x="210" y="194.57999999999993" as="targetPoint" />
          </mxGeometry>
        </mxCell>
        <mxCell id="ToLmbOnrknAfBExeI6Ki-5" value="" style="ellipse;whiteSpace=wrap;html=1;aspect=fixed;" vertex="1" parent="1">
          <mxGeometry x="210" y="170" width="50" height="50" as="geometry" />
        </mxCell>
        <mxCell id="ToLmbOnrknAfBExeI6Ki-6" value="" style="triangle;whiteSpace=wrap;html=1;fillColor=#000000;" vertex="1" parent="1">
          <mxGeometry x="320" y="170" width="30" height="50" as="geometry" />
        </mxCell>
        <mxCell id="ToLmbOnrknAfBExeI6Ki-7" value="" style="endArrow=none;html=1;rounded=0;exitX=1;exitY=0.5;exitDx=0;exitDy=0;entryX=0;entryY=0.5;entryDx=0;entryDy=0;" edge="1" parent="1" source="ToLmbOnrknAfBExeI6Ki-5" target="ToLmbOnrknAfBExeI6Ki-6">
          <mxGeometry width="50" height="50" relative="1" as="geometry">
            <mxPoint x="260" y="230" as="sourcePoint" />
            <mxPoint x="310" y="180" as="targetPoint" />
          </mxGeometry>
        </mxCell>
        <mxCell id="ToLmbOnrknAfBExeI6Ki-8" value="" style="endArrow=none;html=1;rounded=0;exitX=1;exitY=0.5;exitDx=0;exitDy=0;entryX=0;entryY=0.5;entryDx=0;entryDy=0;" edge="1" parent="1">
          <mxGeometry width="50" height="50" relative="1" as="geometry">
            <mxPoint x="350" y="194.57999999999993" as="sourcePoint" />
            <mxPoint x="410" y="194.57999999999993" as="targetPoint" />
          </mxGeometry>
        </mxCell>
        <mxCell id="ToLmbOnrknAfBExeI6Ki-9" value="" style="ellipse;whiteSpace=wrap;html=1;aspect=fixed;" vertex="1" parent="1">
          <mxGeometry x="410" y="170" width="50" height="50" as="geometry" />
        </mxCell>
        <mxCell id="ToLmbOnrknAfBExeI6Ki-10" value="" style="triangle;whiteSpace=wrap;html=1;fillColor=#000000;" vertex="1" parent="1">
          <mxGeometry x="520" y="170" width="30" height="50" as="geometry" />
        </mxCell>
        <mxCell id="ToLmbOnrknAfBExeI6Ki-11" value="" style="endArrow=none;html=1;rounded=0;exitX=1;exitY=0.5;exitDx=0;exitDy=0;entryX=0;entryY=0.5;entryDx=0;entryDy=0;" edge="1" parent="1" source="ToLmbOnrknAfBExeI6Ki-9" target="ToLmbOnrknAfBExeI6Ki-10">
          <mxGeometry width="50" height="50" relative="1" as="geometry">
            <mxPoint x="460" y="230" as="sourcePoint" />
            <mxPoint x="510" y="180" as="targetPoint" />
          </mxGeometry>
        </mxCell>
        <mxCell id="ToLmbOnrknAfBExeI6Ki-12" value="" style="endArrow=none;html=1;rounded=0;exitX=1;exitY=0.5;exitDx=0;exitDy=0;entryX=0;entryY=0.5;entryDx=0;entryDy=0;" edge="1" parent="1">
          <mxGeometry width="50" height="50" relative="1" as="geometry">
            <mxPoint x="550" y="194.57999999999993" as="sourcePoint" />
            <mxPoint x="610" y="194.57999999999993" as="targetPoint" />
          </mxGeometry>
        </mxCell>
        <mxCell id="ToLmbOnrknAfBExeI6Ki-13" value="" style="ellipse;whiteSpace=wrap;html=1;aspect=fixed;" vertex="1" parent="1">
          <mxGeometry x="610" y="170" width="50" height="50" as="geometry" />
        </mxCell>
        <mxCell id="ToLmbOnrknAfBExeI6Ki-14" value="" style="triangle;whiteSpace=wrap;html=1;fillColor=#000000;" vertex="1" parent="1">
          <mxGeometry x="720" y="170" width="30" height="50" as="geometry" />
        </mxCell>
        <mxCell id="ToLmbOnrknAfBExeI6Ki-15" value="" style="endArrow=none;html=1;rounded=0;exitX=1;exitY=0.5;exitDx=0;exitDy=0;entryX=0;entryY=0.5;entryDx=0;entryDy=0;" edge="1" parent="1" source="ToLmbOnrknAfBExeI6Ki-13" target="ToLmbOnrknAfBExeI6Ki-14">
          <mxGeometry width="50" height="50" relative="1" as="geometry">
            <mxPoint x="660" y="230" as="sourcePoint" />
            <mxPoint x="710" y="180" as="targetPoint" />
          </mxGeometry>
        </mxCell>
        <mxCell id="ToLmbOnrknAfBExeI6Ki-16" value="" style="endArrow=none;html=1;rounded=0;exitX=1;exitY=0.5;exitDx=0;exitDy=0;entryX=0;entryY=0.5;entryDx=0;entryDy=0;" edge="1" parent="1">
          <mxGeometry width="50" height="50" relative="1" as="geometry">
            <mxPoint x="750" y="194.57999999999993" as="sourcePoint" />
            <mxPoint x="810" y="194.57999999999993" as="targetPoint" />
          </mxGeometry>
        </mxCell>
        <mxCell id="ToLmbOnrknAfBExeI6Ki-17" value="" style="ellipse;whiteSpace=wrap;html=1;aspect=fixed;" vertex="1" parent="1">
          <mxGeometry x="810" y="170" width="50" height="50" as="geometry" />
        </mxCell>
        <mxCell id="ToLmbOnrknAfBExeI6Ki-18" value="" style="triangle;whiteSpace=wrap;html=1;fillColor=#000000;" vertex="1" parent="1">
          <mxGeometry x="920" y="170" width="30" height="50" as="geometry" />
        </mxCell>
        <mxCell id="ToLmbOnrknAfBExeI6Ki-19" value="" style="endArrow=none;html=1;rounded=0;exitX=1;exitY=0.5;exitDx=0;exitDy=0;entryX=0;entryY=0.5;entryDx=0;entryDy=0;" edge="1" parent="1" source="ToLmbOnrknAfBExeI6Ki-17" target="ToLmbOnrknAfBExeI6Ki-18">
          <mxGeometry width="50" height="50" relative="1" as="geometry">
            <mxPoint x="860" y="230" as="sourcePoint" />
            <mxPoint x="910" y="180" as="targetPoint" />
          </mxGeometry>
        </mxCell>
        <mxCell id="ToLmbOnrknAfBExeI6Ki-20" value="" style="endArrow=none;html=1;rounded=0;exitX=1;exitY=0.5;exitDx=0;exitDy=0;entryX=0;entryY=0.5;entryDx=0;entryDy=0;" edge="1" parent="1">
          <mxGeometry width="50" height="50" relative="1" as="geometry">
            <mxPoint x="950" y="194.57999999999993" as="sourcePoint" />
            <mxPoint x="1010" y="194.57999999999993" as="targetPoint" />
          </mxGeometry>
        </mxCell>
        <mxCell id="ToLmbOnrknAfBExeI6Ki-21" value="" style="ellipse;whiteSpace=wrap;html=1;aspect=fixed;" vertex="1" parent="1">
          <mxGeometry x="1010" y="170" width="50" height="50" as="geometry" />
        </mxCell>
        <mxCell id="ToLmbOnrknAfBExeI6Ki-22" value="" style="triangle;whiteSpace=wrap;html=1;fillColor=#000000;" vertex="1" parent="1">
          <mxGeometry x="1120" y="170" width="30" height="50" as="geometry" />
        </mxCell>
        <mxCell id="ToLmbOnrknAfBExeI6Ki-23" value="" style="endArrow=none;html=1;rounded=0;exitX=1;exitY=0.5;exitDx=0;exitDy=0;entryX=0;entryY=0.5;entryDx=0;entryDy=0;" edge="1" parent="1" source="ToLmbOnrknAfBExeI6Ki-21" target="ToLmbOnrknAfBExeI6Ki-22">
          <mxGeometry width="50" height="50" relative="1" as="geometry">
            <mxPoint x="1060" y="230" as="sourcePoint" />
            <mxPoint x="1110" y="180" as="targetPoint" />
          </mxGeometry>
        </mxCell>
        <mxCell id="ToLmbOnrknAfBExeI6Ki-24" value="" style="endArrow=none;html=1;rounded=0;exitX=1;exitY=0.5;exitDx=0;exitDy=0;entryX=0;entryY=0.5;entryDx=0;entryDy=0;" edge="1" parent="1">
          <mxGeometry width="50" height="50" relative="1" as="geometry">
            <mxPoint x="1150" y="194.57999999999993" as="sourcePoint" />
            <mxPoint x="1210" y="194.57999999999993" as="targetPoint" />
          </mxGeometry>
        </mxCell>
        <mxCell id="ToLmbOnrknAfBExeI6Ki-25" value="" style="ellipse;whiteSpace=wrap;html=1;aspect=fixed;" vertex="1" parent="1">
          <mxGeometry x="1210" y="170" width="50" height="50" as="geometry" />
        </mxCell>
        <mxCell id="ToLmbOnrknAfBExeI6Ki-26" value="" style="triangle;whiteSpace=wrap;html=1;fillColor=#000000;" vertex="1" parent="1">
          <mxGeometry x="1320" y="170" width="30" height="50" as="geometry" />
        </mxCell>
        <mxCell id="ToLmbOnrknAfBExeI6Ki-27" value="" style="endArrow=none;html=1;rounded=0;exitX=1;exitY=0.5;exitDx=0;exitDy=0;entryX=0;entryY=0.5;entryDx=0;entryDy=0;" edge="1" parent="1" source="ToLmbOnrknAfBExeI6Ki-25" target="ToLmbOnrknAfBExeI6Ki-26">
          <mxGeometry width="50" height="50" relative="1" as="geometry">
            <mxPoint x="1260" y="230" as="sourcePoint" />
            <mxPoint x="1310" y="180" as="targetPoint" />
          </mxGeometry>
        </mxCell>
        <mxCell id="ToLmbOnrknAfBExeI6Ki-28" value="" style="endArrow=none;html=1;rounded=0;exitX=1;exitY=0.5;exitDx=0;exitDy=0;entryX=0;entryY=0.5;entryDx=0;entryDy=0;" edge="1" parent="1">
          <mxGeometry width="50" height="50" relative="1" as="geometry">
            <mxPoint x="1350" y="194.57999999999993" as="sourcePoint" />
            <mxPoint x="1410" y="194.57999999999993" as="targetPoint" />
          </mxGeometry>
        </mxCell>
        <mxCell id="ToLmbOnrknAfBExeI6Ki-29" value="" style="ellipse;whiteSpace=wrap;html=1;aspect=fixed;" vertex="1" parent="1">
          <mxGeometry x="1410" y="170" width="50" height="50" as="geometry" />
        </mxCell>
        <mxCell id="ToLmbOnrknAfBExeI6Ki-30" value="&lt;font style=&quot;font-size: 24px&quot;&gt;R(s)&lt;/font&gt;" style="text;html=1;strokeColor=none;fillColor=none;align=center;verticalAlign=middle;whiteSpace=wrap;rounded=0;" vertex="1" parent="1">
          <mxGeometry x="5" y="120" width="60" height="30" as="geometry" />
        </mxCell>
        <mxCell id="ToLmbOnrknAfBExeI6Ki-31" value="&lt;font style=&quot;font-size: 24px&quot;&gt;1&lt;/font&gt;" style="text;html=1;strokeColor=none;fillColor=none;align=center;verticalAlign=middle;whiteSpace=wrap;rounded=0;" vertex="1" parent="1">
          <mxGeometry x="105" y="120" width="60" height="30" as="geometry" />
        </mxCell>
        <mxCell id="ToLmbOnrknAfBExeI6Ki-32" value="&lt;span style=&quot;font-size: 24px&quot;&gt;V1&lt;/span&gt;" style="text;html=1;strokeColor=none;fillColor=none;align=center;verticalAlign=middle;whiteSpace=wrap;rounded=0;" vertex="1" parent="1">
          <mxGeometry x="205" y="120" width="60" height="30" as="geometry" />
        </mxCell>
        <mxCell id="ToLmbOnrknAfBExeI6Ki-33" value="&lt;font style=&quot;font-size: 24px&quot;&gt;1&lt;/font&gt;" style="text;html=1;strokeColor=none;fillColor=none;align=center;verticalAlign=middle;whiteSpace=wrap;rounded=0;" vertex="1" parent="1">
          <mxGeometry x="305" y="120" width="60" height="30" as="geometry" />
        </mxCell>
        <mxCell id="ToLmbOnrknAfBExeI6Ki-34" value="&lt;font style=&quot;font-size: 24px&quot;&gt;A&lt;/font&gt;" style="text;html=1;strokeColor=none;fillColor=none;align=center;verticalAlign=middle;whiteSpace=wrap;rounded=0;" vertex="1" parent="1">
          <mxGeometry x="505" y="240" width="60" height="30" as="geometry" />
        </mxCell>
        <mxCell id="ToLmbOnrknAfBExeI6Ki-35" value="&lt;span style=&quot;font-size: 24px&quot;&gt;V2&lt;/span&gt;" style="text;html=1;strokeColor=none;fillColor=none;align=center;verticalAlign=middle;whiteSpace=wrap;rounded=0;" vertex="1" parent="1">
          <mxGeometry x="405" y="120" width="60" height="30" as="geometry" />
        </mxCell>
        <mxCell id="ToLmbOnrknAfBExeI6Ki-36" value="&lt;span style=&quot;font-size: 24px&quot;&gt;V3&lt;/span&gt;" style="text;html=1;strokeColor=none;fillColor=none;align=center;verticalAlign=middle;whiteSpace=wrap;rounded=0;" vertex="1" parent="1">
          <mxGeometry x="605" y="120" width="60" height="30" as="geometry" />
        </mxCell>
        <mxCell id="ToLmbOnrknAfBExeI6Ki-37" value="" style="triangle;whiteSpace=wrap;html=1;fillColor=#000000;rotation=0;" vertex="1" parent="1">
          <mxGeometry x="830" y="30" width="30" height="50" as="geometry" />
        </mxCell>
        <mxCell id="ToLmbOnrknAfBExeI6Ki-38" value="&lt;span style=&quot;font-size: 24px&quot;&gt;B&lt;/span&gt;" style="text;html=1;strokeColor=none;fillColor=none;align=center;verticalAlign=middle;whiteSpace=wrap;rounded=0;" vertex="1" parent="1">
          <mxGeometry x="705" y="240" width="60" height="30" as="geometry" />
        </mxCell>
        <mxCell id="ToLmbOnrknAfBExeI6Ki-39" value="&lt;span style=&quot;font-size: 24px&quot;&gt;V4&lt;/span&gt;" style="text;html=1;strokeColor=none;fillColor=none;align=center;verticalAlign=middle;whiteSpace=wrap;rounded=0;" vertex="1" parent="1">
          <mxGeometry x="805" y="120" width="60" height="30" as="geometry" />
        </mxCell>
        <mxCell id="ToLmbOnrknAfBExeI6Ki-40" value="&lt;span style=&quot;font-size: 24px&quot;&gt;1&lt;/span&gt;" style="text;html=1;strokeColor=none;fillColor=none;align=center;verticalAlign=middle;whiteSpace=wrap;rounded=0;" vertex="1" parent="1">
          <mxGeometry x="1105" y="120" width="60" height="30" as="geometry" />
        </mxCell>
        <mxCell id="ToLmbOnrknAfBExeI6Ki-41" value="&lt;span style=&quot;font-size: 24px&quot;&gt;1&lt;/span&gt;" style="text;html=1;strokeColor=none;fillColor=none;align=center;verticalAlign=middle;whiteSpace=wrap;rounded=0;" vertex="1" parent="1">
          <mxGeometry x="805" width="60" height="30" as="geometry" />
        </mxCell>
        <mxCell id="ToLmbOnrknAfBExeI6Ki-42" value="&lt;span style=&quot;font-size: 24px&quot;&gt;1&lt;/span&gt;" style="text;html=1;strokeColor=none;fillColor=none;align=center;verticalAlign=middle;whiteSpace=wrap;rounded=0;" vertex="1" parent="1">
          <mxGeometry x="905" y="240" width="60" height="30" as="geometry" />
        </mxCell>
        <mxCell id="ToLmbOnrknAfBExeI6Ki-43" value="&lt;span style=&quot;font-size: 24px&quot;&gt;V5&lt;/span&gt;" style="text;html=1;strokeColor=none;fillColor=none;align=center;verticalAlign=middle;whiteSpace=wrap;rounded=0;" vertex="1" parent="1">
          <mxGeometry x="1005" y="120" width="60" height="30" as="geometry" />
        </mxCell>
        <mxCell id="ToLmbOnrknAfBExeI6Ki-44" value="&lt;span style=&quot;font-size: 24px&quot;&gt;V6&lt;/span&gt;" style="text;html=1;strokeColor=none;fillColor=none;align=center;verticalAlign=middle;whiteSpace=wrap;rounded=0;" vertex="1" parent="1">
          <mxGeometry x="1205" y="120" width="60" height="30" as="geometry" />
        </mxCell>
        <mxCell id="ToLmbOnrknAfBExeI6Ki-45" value="&lt;span style=&quot;font-size: 24px&quot;&gt;Y&lt;/span&gt;" style="text;html=1;strokeColor=none;fillColor=none;align=center;verticalAlign=middle;whiteSpace=wrap;rounded=0;" vertex="1" parent="1">
          <mxGeometry x="1405" y="120" width="60" height="30" as="geometry" />
        </mxCell>
        <mxCell id="ToLmbOnrknAfBExeI6Ki-46" value="&lt;span style=&quot;font-size: 24px&quot;&gt;1&lt;/span&gt;" style="text;html=1;strokeColor=none;fillColor=none;align=center;verticalAlign=middle;whiteSpace=wrap;rounded=0;" vertex="1" parent="1">
          <mxGeometry x="1305" y="120" width="60" height="30" as="geometry" />
        </mxCell>
        <mxCell id="ToLmbOnrknAfBExeI6Ki-47" value="" style="triangle;whiteSpace=wrap;html=1;fillColor=#000000;rotation=-180;" vertex="1" parent="1">
          <mxGeometry x="620" y="310" width="30" height="50" as="geometry" />
        </mxCell>
        <mxCell id="ToLmbOnrknAfBExeI6Ki-48" value="" style="curved=1;endArrow=none;html=1;rounded=0;fontSize=24;exitX=0.5;exitY=0;exitDx=0;exitDy=0;entryX=0;entryY=0.5;entryDx=0;entryDy=0;" edge="1" parent="1" source="ToLmbOnrknAfBExeI6Ki-13" target="ToLmbOnrknAfBExeI6Ki-37">
          <mxGeometry width="50" height="50" relative="1" as="geometry">
            <mxPoint x="840" y="400" as="sourcePoint" />
            <mxPoint x="890" y="350" as="targetPoint" />
            <Array as="points">
              <mxPoint x="680" y="60" />
            </Array>
          </mxGeometry>
        </mxCell>
        <mxCell id="ToLmbOnrknAfBExeI6Ki-49" value="" style="curved=1;endArrow=none;html=1;rounded=0;fontSize=24;exitX=0.5;exitY=0;exitDx=0;exitDy=0;entryX=1;entryY=0.5;entryDx=0;entryDy=0;" edge="1" parent="1" source="ToLmbOnrknAfBExeI6Ki-21" target="ToLmbOnrknAfBExeI6Ki-37">
          <mxGeometry width="50" height="50" relative="1" as="geometry">
            <mxPoint x="1135" y="15" as="sourcePoint" />
            <mxPoint x="950" y="110" as="targetPoint" />
            <Array as="points">
              <mxPoint x="980" y="60" />
            </Array>
          </mxGeometry>
        </mxCell>
        <mxCell id="ToLmbOnrknAfBExeI6Ki-50" value="" style="endArrow=none;html=1;rounded=0;fontSize=24;edgeStyle=orthogonalEdgeStyle;curved=1;entryX=0.5;entryY=1;entryDx=0;entryDy=0;exitX=1;exitY=0.5;exitDx=0;exitDy=0;" edge="1" parent="1" source="ToLmbOnrknAfBExeI6Ki-47" target="ToLmbOnrknAfBExeI6Ki-9">
          <mxGeometry width="50" height="50" relative="1" as="geometry">
            <mxPoint x="490" y="360" as="sourcePoint" />
            <mxPoint x="540" y="310" as="targetPoint" />
          </mxGeometry>
        </mxCell>
        <mxCell id="ToLmbOnrknAfBExeI6Ki-51" value="" style="curved=1;endArrow=none;html=1;rounded=0;fontSize=24;exitX=0;exitY=0.5;exitDx=0;exitDy=0;entryX=0.5;entryY=1;entryDx=0;entryDy=0;" edge="1" parent="1" source="ToLmbOnrknAfBExeI6Ki-47" target="ToLmbOnrknAfBExeI6Ki-17">
          <mxGeometry width="50" height="50" relative="1" as="geometry">
            <mxPoint x="750" y="350" as="sourcePoint" />
            <mxPoint x="800" y="300" as="targetPoint" />
            <Array as="points">
              <mxPoint x="800" y="340" />
            </Array>
          </mxGeometry>
        </mxCell>
        <mxCell id="ToLmbOnrknAfBExeI6Ki-52" value="&lt;span style=&quot;font-size: 24px&quot;&gt;-C&lt;/span&gt;" style="text;html=1;strokeColor=none;fillColor=none;align=center;verticalAlign=middle;whiteSpace=wrap;rounded=0;" vertex="1" parent="1">
          <mxGeometry x="610" y="270" width="60" height="30" as="geometry" />
        </mxCell>
        <mxCell id="ToLmbOnrknAfBExeI6Ki-53" style="edgeStyle=orthogonalEdgeStyle;curved=1;rounded=0;orthogonalLoop=1;jettySize=auto;html=1;exitX=0;exitY=0.5;exitDx=0;exitDy=0;entryX=0.5;entryY=1;entryDx=0;entryDy=0;fontSize=24;" edge="1" parent="1" source="ToLmbOnrknAfBExeI6Ki-55" target="ToLmbOnrknAfBExeI6Ki-25">
          <mxGeometry relative="1" as="geometry" />
        </mxCell>
        <mxCell id="ToLmbOnrknAfBExeI6Ki-54" style="edgeStyle=orthogonalEdgeStyle;curved=1;rounded=0;orthogonalLoop=1;jettySize=auto;html=1;exitX=1;exitY=0.5;exitDx=0;exitDy=0;entryX=0.5;entryY=1;entryDx=0;entryDy=0;fontSize=24;" edge="1" parent="1" source="ToLmbOnrknAfBExeI6Ki-55" target="ToLmbOnrknAfBExeI6Ki-5">
          <mxGeometry relative="1" as="geometry" />
        </mxCell>
        <mxCell id="ToLmbOnrknAfBExeI6Ki-55" value="" style="triangle;whiteSpace=wrap;html=1;fillColor=#000000;rotation=-180;" vertex="1" parent="1">
          <mxGeometry x="720" y="400" width="30" height="50" as="geometry" />
        </mxCell>
        <mxCell id="ToLmbOnrknAfBExeI6Ki-56" value="&lt;span style=&quot;font-size: 24px&quot;&gt;-1&lt;/span&gt;" style="text;html=1;strokeColor=none;fillColor=none;align=center;verticalAlign=middle;whiteSpace=wrap;rounded=0;" vertex="1" parent="1">
          <mxGeometry x="705" y="370" width="60" height="30" as="geometry" />
        </mxCell>
      </root>
    </mxGraphModel>
  </diagram>
</mxfile>
